<svg xmlns="http://www.w3.org/2000/svg" width="210mm" height="297mm" viewBox="0 0 210 297"><g><path d="M15.768 3.817c-2.117.045-4.042 1.41-4.027 3.552 0 4.42 2.176 6.314-3.333 8.048-4.749 1.032-6.687-1.602-5.644-2.98 1.081-1.04 2.534-.913 2.686-1.6-.189-.61-1.271-1.134-3.593-.612C1.665 7.995 1.12 6.78.61 7.233c-.553.491-.638 2.164-.6 3.026.992 13.422 19.479 13.551 21.338.795.358-5.454-2.858-7.295-5.58-7.237zm1.947 2.668c.48 0 .87.446.87.997 0 .551-.39.998-.87.998s-.87-.447-.87-.998c0-.55.389-.997.87-.997zm-2.338 8.942c1.544 1.063-.011 3.546-2.802 2.19-.06-.03-.057-.137.092-.214 1.033-.547 2.051-1.42 2.454-1.992.054-.076.171-.042.256.016z"/><path d="M9.038 14.71c.597-.029 2.338-1.212 2.501-1.736.101-.324-2.747-.878-3.214.087-.25.517-.11 1.688.713 1.65zM7.439-.01C6.237.022 4.987.542 3.988 1.564c-2.725 2.925 1.61 9.197 3.038 2.607.532-2.459 2.879-2.13 3.491-1.677.408.302-.096 1.396-.726 1.96.717.153 1.416-.513 1.599-1.235.72-.353 1.04-.792 1.28-1.45-.336.067-.914.456-1.473.452C10.449.702 8.984-.056 7.439-.01zM5.836 4.114a.33.33 0 01.094.016c.24.077.347.41.24.746-.108.335-.39.545-.629.47-.24-.078-.346-.412-.239-.748.092-.286.314-.488.534-.484z"/></g></svg>