<svg xmlns="http://www.w3.org/2000/svg" viewBox="0 0 223.2 58.32" height="77.76" width="297.6"><g><path style="-inkscape-font-specification:'Grandstander Black, Normal';font-variant-ligatures:normal;font-variant-caps:normal;font-variant-numeric:normal;font-variant-east-asian:normal" d="M68.956 42.7q0-1.207-.053-2.966-.036-1.759-.107-3.873-.053-2.114-.16-4.37-.088-2.275-.195-4.513-.089-2.239-.195-4.246-.09-2.026-.178-3.625.782-.142 1.777-.195 1.012-.071 1.865-.071 1.066 0 1.99.089.924.07 1.439.16 0 .48.018 1.492.035 1.013.053 2.292l.071 2.576q.053 1.297.107 2.31.55-.551 1.154-1.475.605-.942 1.262-2.15t1.35-2.611q.693-1.422 1.421-2.95 1.777 1.35 3.465 2.346 1.688.977 2.398 1.35-.16.497-.728 1.474-.569.96-1.35 2.132-.782 1.155-1.653 2.257-.87 1.101-1.652 1.847.817.995 1.635 2.114.817 1.102 1.545 2.203.746 1.102 1.35 2.08.604.976 1.013 1.74.409.746.569 1.137-.551.356-1.653.942-1.083.586-2.327 1.155-1.244.55-2.256.87-.231-.568-.64-1.386-.39-.835-.888-1.776-.48-.942-.977-1.866-.498-.923-.924-1.687-.427-.782-.729-1.244-.284.23-.497.355-.195.107-.444.249.07.906.16 2.008.089 1.101.16 2.15l.124 1.847q.053.782.053 1.084-.39.017-1.58.124-1.173.107-2.72.267-1.545.177-3.073.355zM99.253 43.038q-3.909 0-6.378-1.599-2.452-1.598-3.607-4.37-1.155-2.772-1.155-6.29 0-3.5 1.333-6.217 1.35-2.736 3.837-4.3 2.487-1.581 5.97-1.581 2.895 0 4.992.906 2.114.888 3.464 2.505 1.368 1.617 2.026 3.802.657 2.185.657 4.78 0 2.398-.64 4.618-.64 2.221-1.99 3.962-1.332 1.741-3.446 2.772-2.114 1.012-5.063 1.012zm.124-7.124q1.439 0 2.47-.853 1.048-.87 1.598-2.256.551-1.386.551-2.931 0-1.102-.23-2.079-.232-.995-.73-1.741-.497-.746-1.332-1.173-.817-.426-2.025-.426-1.226 0-2.256.835-1.03.835-1.653 2.239-.621 1.385-.621 3.055 0 1.564.373 2.772.373 1.19 1.297 1.883.923.675 2.558.675zM119.834 42.559q-.888 0-2.06-.018-1.173-.018-2.364-.089-1.19-.053-2.185-.178-.035-1.066-.071-2.771-.035-1.723-.071-3.73-.018-2.026-.018-3.945 0-3.038.053-6.325.054-3.304.143-6.733.373-.018 1.19-.036.835-.017 1.865-.035 1.03-.036 2.008-.054.977-.017 1.634-.017.107 1.723.178 4.015.089 2.274.124 4.797.054 2.505.054 4.956 0 1.262-.018 2.47-.018 1.208-.053 2.327-.018 1.102-.09 2.097-.052.977-.141 1.812-.071.835-.178 1.457zM142.346 42.132l-7.568-.302q-.09-3.837-.214-7.64-.106-3.801-.23-7.585-.125-3.802-.285-7.586 1.919-.143 3.873-.178 1.955-.053 3.749-.053 2.167 0 3.926.177 1.76.178 2.843.427.124 1.563.195 3.198.071 1.634.071 2.807l-2.025-.107q-1.332-.089-2.896-.16-1.563-.089-2.967-.089.036.267.071.622.036.338.071.71.054.356.071.694.8 0 1.973.088 1.172.072 2.274.196 1.101.124 1.67.23 0 1.298-.018 2.701-.018 1.386-.142 3.003-.622-.071-1.51-.142-.871-.09-1.848-.142-.96-.054-1.866-.054.16 1.44.302 3.02.143 1.582.267 3.163.124 1.563.213 3.002zM155.953 42.399q-.497 0-1.474-.036-.96-.017-2.097-.053l-2.203-.071q-1.066-.036-1.776-.071.213-1.208.568-2.932.355-1.74.817-3.801.462-2.061.978-4.264.533-2.221 1.083-4.406.551-2.203 1.084-4.21.533-2.009.995-3.625 2.274-.285 4.14-.427 1.883-.142 3.588-.142 1.102 0 2.168.071 1.066.054 2.15.196.355 1.563.71 3.5.373 1.918.746 4.583.391 2.665.782 6.396.39 3.731.8 8.901-.711.089-2.08.178-1.35.106-2.842.16-1.492.053-2.63.053-.035-.515-.053-1.048l-.035-1.102-.036-1.155v-1.19-1.244l-1.119.036q-.55.018-1.066.053-.497.018-.924.054-.426.035-.764.088-.337.036-.533.071-.23.995-.426 2.008-.195 1.013-.337 1.901-.143.888-.214 1.528zm1.866-11.62q.248-.035.924-.088.675-.053 1.385-.089.729-.035 1.066-.035-.018-.267-.053-1.19-.018-.925-.053-2.026-.036-1.102-.054-1.972-.017-.87-.017-1.048-.214 0-.676.035-.444.018-.87.053-.409.018-.569.036l-.284 1.475-.337 1.9q-.16.995-.302 1.795-.125.8-.16 1.155zM171.764 42.559q-.107-2.008-.266-4.904-.16-2.896-.338-6.182-.16-3.305-.32-6.556-.142-3.251-.266-5.934.746-.071 1.936-.142 1.208-.089 2.594-.16 1.404-.089 2.736-.142 1.333-.053 2.327-.053 1.404 0 2.843.266 1.457.249 2.683.906 1.226.658 1.972 1.866.746 1.208.746 3.126 0 1.83-.977 3.483-.96 1.634-2.363 2.398.408.8.888 1.883.498 1.066.977 2.257.498 1.172.942 2.31.462 1.136.817 2.078.355.924.533 1.492-.657.391-1.74.746-1.085.338-2.222.604-1.137.267-1.972.427-.817.16-.96.177-.106-.515-.372-1.58-.267-1.067-.622-2.381-.355-1.333-.71-2.63-.356-1.315-.658-2.363-.302-1.048-.462-1.528-.23.036-.409.071-.16.036-.337.054-.16 0-.409.018.071.497.16 1.439.089.923.178 2.096t.16 2.398q.089 1.209.124 2.274.053 1.049.053 1.724-.888.195-2.15.284-1.243.107-2.593.142-1.333.036-2.523.036zm5.952-15.617q.408 0 .852-.017.462-.036 1.137-.125.782-.106 1.35-.337.587-.231.889-.622.32-.409.32-.977 0-.64-.338-.906-.337-.285-.977-.356-.64-.07-1.563-.07-.285 0-.587.017-.284.018-.55.053-.267.018-.498.054-.213.017-.355.035.035.302.071.64l.071.693q.053.355.071.71.036.338.053.658.036.302.054.55zM190.858 42.008v-2.985q.018-1.865.036-4.175.035-2.31.088-4.85.054-2.558.125-5.099.089-2.558.213-4.868 1.066-.106 2.505-.16 1.44-.07 2.825-.106 1.403-.036 2.363-.036.96-.018 1.048-.018.035.072.213.747t.444 1.74q.285 1.067.604 2.346.32 1.279.64 2.594.338 1.314.622 2.505.302 1.172.497 2.025.213.853.285 1.19l-.8.107q.16-.426.444-1.386.284-.977.64-2.256.373-1.297.746-2.718.39-1.422.746-2.754.355-1.35.622-2.398.266-1.066.373-1.617.924 0 2.345.035 1.421.036 2.878.125 1.475.089 2.47.266.355 1.564.497 3.944.16 2.363.16 5.046 0 2.292-.089 4.655-.07 2.363-.195 4.459-.124 2.096-.249 3.606-1.084 0-2.345-.035-1.261-.053-2.38-.124-1.12-.072-1.76-.107.054-.746.125-2.256.089-1.51.16-3.163.053-1.012.089-1.972.053-.96.088-1.723.054-.782.09-1.226-.16.586-.445 1.475-.284.87-.64 1.918-.337 1.03-.71 2.097-.373 1.066-.729 2.043-.337.96-.604 1.688-.266.728-.426 1.083-.302.018-.906.036h-.906q-.551 0-1.137-.053-.587-.054-1.333-.125-.053-.302-.195-.941-.124-.64-.32-1.528-.178-.906-.39-1.937-.214-1.048-.445-2.114-.213-1.084-.444-2.096-.213-1.03-.409-1.884-.195-.87-.337-1.456l.035 3.34q.018 1.705.018 3.269.018 1.563.018 2.824.018 1.244.018 2.026.017.782.017.888-.781.018-1.972.053l-2.47.036h-2.45z"/></g><path d="M213.13 18.895c.314.072.81.228 1.485.467l1.316 1.91c1.888-.07 4.256.163 7.106.7.204-2.555-.178-4.188-1.018-5.474l-5.791 2.015c1.197-2.436 1.7-4.41 1.506-5.918L211.879 12c.16 3.23 1.001 5.49 1.251 6.894z"/><g><path d="M44.695 10.916c-6 .128-11.458 3.996-11.416 10.069 0 12.531 6.17 17.897-9.446 22.813-13.464 2.924-18.957-4.541-16.002-8.45 3.066-2.946 7.186-2.584 7.616-4.53-.536-1.731-3.603-3.217-10.187-1.736-.543-6.325-2.087-9.768-3.534-8.483C.16 21.992-.083 26.734.023 29.18c2.815 38.046 55.218 38.412 60.49 2.253 1.014-15.462-8.102-20.68-15.818-20.516zm5.517 7.562c1.363 0 2.468 1.266 2.468 2.828 0 1.562-1.105 2.827-2.467 2.827-1.363 0-2.467-1.265-2.467-2.827 0-1.561 1.104-2.827 2.466-2.828zm-6.625 25.35c4.376 3.012-.033 10.052-7.943 6.204-.17-.083-.162-.386.261-.604 2.929-1.55 5.814-4.025 6.955-5.645.153-.218.486-.122.727.045z"/><path d="M25.616 41.794c1.692-.08 6.628-3.436 7.091-4.92.287-.92-7.787-2.49-9.111.245-.71 1.468-.313 4.787 2.02 4.675z"/><path d="M21.084.064c-3.406.1-6.95 1.573-9.782 4.47-7.725 8.29 4.565 26.068 8.61 7.39 1.51-6.97 8.162-6.041 9.898-4.756 1.156.857-.273 3.958-2.057 5.559 2.03.43 4.013-1.457 4.53-3.502 2.04-1 2.948-2.245 3.631-4.113-.953.193-2.592 1.295-4.177 1.285-2.121-4.314-6.273-6.46-10.653-6.333zM16.54 11.762a.939.939 0 01.267.044c.679.218.982 1.165.678 2.115-.305.95-1.101 1.546-1.78 1.328-.679-.217-.982-1.164-.678-2.115.26-.812.89-1.384 1.513-1.372z"/></g></svg>